<svg width="104" height="102" viewBox="0 0 104 102" fill="none"
    xmlns="http://www.w3.org/2000/svg">
    <g clip-path="url(#clip0_457_2)">
        <path d="M-18 -2.14287L-18 104.143C-18 116.767 -9.23355 127 1.58042 127L102.42 127C113.234 127 122 116.767 122 104.143L122 -2.14287C122 -14.7665 113.234 -25 102.42 -25L1.58042 -25C-9.23355 -25 -18 -14.7665 -18 -2.14287Z" fill="#212A3E"/>
        <path d="M25.0921 53.6494L25.0918 31.6189" stroke="#0567FF" stroke-width="13" stroke-miterlimit="10" stroke-linecap="round" stroke-linejoin="round"/>
        <path d="M25.0921 73.1714L25.0918 51.1409" stroke="#00C9C9" stroke-width="13" stroke-miterlimit="10" stroke-linecap="round" stroke-linejoin="round"/>
        <mask id="mask0_457_2" style="mask-type:luminance" maskUnits="userSpaceOnUse" x="32" y="21" width="57" height="59">
            <path d="M88.3386 21.948H32.5957V79.2843H88.3386V21.948Z" fill="white"/>
        </mask>
        <g mask="url(#mask0_457_2)">
            <path d="M32.5957 79.2843V21.948H56.6856C61.8677 21.948 66.4336 22.7038 70.3552 24.2025C74.3048 25.7141 77.6102 27.7636 80.2713 30.3512C82.9183 32.9515 84.9212 35.9874 86.2657 39.4717C87.6383 42.9303 88.3386 46.6195 88.3386 50.5393C88.3386 54.9202 87.5683 58.8656 86.0416 62.3755C84.543 65.8981 82.4141 68.9212 79.655 71.4447C76.8819 73.9426 73.5625 75.8769 69.6829 77.2347C65.7893 78.6054 61.4615 79.2843 56.6856 79.2843H32.5957ZM70.8594 50.5393C70.8594 48.3232 70.5233 46.3121 69.851 44.4931C69.2067 42.6485 68.2823 41.0985 67.0498 39.8304C65.8453 38.5366 64.3747 37.5246 62.624 36.8073C60.8593 36.0643 58.8845 35.68 56.6856 35.68H49.7948V65.5523H56.6856C58.9265 65.5523 60.9153 65.1808 62.68 64.425C64.4728 63.682 65.9574 62.6316 67.1619 61.2994C68.3524 59.9416 69.2627 58.3532 69.907 56.5342C70.5373 54.6896 70.8594 52.6913 70.8594 50.5393Z" fill="white"/>
        </g>
    </g>
    <defs>
        <clipPath id="clip0_457_2">
            <rect width="104" height="102" rx="24" fill="white"/>
        </clipPath>
    </defs>
</svg>
