<svg width="719" height="601" viewBox="0 0 719 601" fill="none"
    xmlns="http://www.w3.org/2000/svg">
    <rect width="719" height="601" rx="234" fill="#0D47A1"/>
    <g filter="url(#filter0_b_0_1)">
        <path d="M582.714 147.696L262.016 209.265C256.435 210.336 254.39 217.261 258.493 221.193L334.837 294.351C338.855 298.201 336.992 304.972 331.57 306.225L148.358 348.556L11.1107 383.436C2.90939 385.52 4.75669 397.66 13.2067 397.211L270.488 383.519H572.084C577.899 383.519 581.179 376.839 577.622 372.238L513.991 289.911C510.435 285.31 513.715 278.63 519.53 278.63H702.007C708.257 278.63 711.374 271.063 706.938 266.661L588.964 149.602C587.323 147.974 584.984 147.261 582.714 147.696Z" fill="white"/>
    </g>
    <defs>
        <filter id="filter0_b_0_1" x="-4.17236" y="137.571" width="723.194" height="269.652" filterUnits="userSpaceOnUse" color-interpolation-filters="sRGB">
            <feFlood flood-opacity="0" result="BackgroundImageFix"/>
            <feGaussianBlur in="BackgroundImageFix" stdDeviation="5"/>
            <feComposite in2="SourceAlpha" operator="in" result="effect1_backgroundBlur_0_1"/>
            <feBlend mode="normal" in="SourceGraphic" in2="effect1_backgroundBlur_0_1" result="shape"/>
        </filter>
    </defs>
</svg>
